<svg width="9" height="15" viewBox="0 0 9 15" fill="none" xmlns="http://www.w3.org/2000/svg">
<path d="M0.976562 7.35938C0.976562 7.63281 1.07812 7.86719 1.29688 8.07031L7.375 14.0234C7.54688 14.1953 7.76562 14.2891 8.02344 14.2891C8.53906 14.2891 8.95312 13.8828 8.95312 13.3594C8.95312 13.1016 8.84375 12.875 8.67188 12.6953L3.19531 7.35938L8.67188 2.02344C8.84375 1.84375 8.95312 1.60938 8.95312 1.35938C8.95312 0.835938 8.53906 0.429688 8.02344 0.429688C7.76562 0.429688 7.54688 0.523438 7.375 0.695312L1.29688 6.64062C1.07812 6.85156 0.976562 7.08594 0.976562 7.35938Z" fill="black"/>
</svg>
