<svg width="8" height="13" viewBox="0 0 8 13" fill="none" xmlns="http://www.w3.org/2000/svg">
<path d="M7.63184 6.06445C7.625 5.8252 7.53613 5.62012 7.35156 5.43555L2.0332 0.233398C1.87598 0.0830078 1.69141 0.000976562 1.46582 0.000976562C1.00781 0.000976562 0.652344 0.356445 0.652344 0.814453C0.652344 1.0332 0.741211 1.23828 0.898438 1.39551L5.68359 6.06445L0.898438 10.7334C0.741211 10.8906 0.652344 11.0889 0.652344 11.3145C0.652344 11.7725 1.00781 12.1279 1.46582 12.1279C1.68457 12.1279 1.87598 12.0459 2.0332 11.8955L7.35156 6.68652C7.54297 6.50879 7.63184 6.30371 7.63184 6.06445Z" fill="#59616A"/>
</svg>
