<svg width="26" height="28" viewBox="0 0 26 28" fill="none" xmlns="http://www.w3.org/2000/svg">
<path d="M13 27.6377C19.8115 27.6377 25.4512 21.998 25.4512 15.1865C25.4512 9.18066 21.0688 4.09033 15.356 2.96729V1.23389C15.356 0.367188 14.7578 0.135254 14.0986 0.611328L10.2046 3.3335C9.64307 3.72412 9.63086 4.31006 10.2046 4.71289L14.0864 7.44727C14.7578 7.93555 15.356 7.70361 15.356 6.82471V5.0791C19.9702 6.12891 23.3638 10.2427 23.3638 15.1865C23.3638 20.9482 18.7617 25.5625 13 25.5625C7.23828 25.5625 2.61182 20.9482 2.62402 15.1865C2.63623 11.7197 4.3208 8.65576 6.9209 6.80029C7.42139 6.42188 7.58008 5.84814 7.2749 5.33545C6.96973 4.83496 6.29834 4.70068 5.76123 5.11572C2.62402 7.39844 0.548828 11.085 0.548828 15.1865C0.548828 21.998 6.20068 27.6377 13 27.6377ZM17.0161 20.3257C19.0425 20.3257 20.373 18.4092 20.373 15.4795C20.373 12.5254 19.0425 10.5845 17.0161 10.5845C14.9775 10.5845 13.6592 12.5132 13.6592 15.4795C13.6592 18.4092 14.9897 20.3257 17.0161 20.3257ZM9.14258 20.3257C11.0591 20.3257 12.4263 19.166 12.4263 17.5181C12.4263 16.3828 11.6694 15.4429 10.5952 15.2476C11.4619 15.0034 12.1211 14.1001 12.1211 13.0747C12.1211 11.6099 10.9248 10.5845 9.21582 10.5845C7.73877 10.5845 6.50586 11.4146 6.24951 12.5986C6.21289 12.7451 6.20068 12.8672 6.20068 13.0015C6.20068 13.4409 6.48145 13.7461 6.89648 13.7461C7.25049 13.7461 7.47021 13.563 7.60449 13.1724C7.84863 12.4033 8.37354 12.0005 9.1792 12.0005C10.0337 12.0005 10.6196 12.5132 10.6196 13.2578C10.6196 14.0391 10.0337 14.6128 9.16699 14.6128H8.64209C8.23926 14.6128 7.9707 14.8936 7.9707 15.3208C7.9707 15.7236 8.25146 16.0288 8.64209 16.0288H9.21582C10.2534 16.0288 10.9004 16.6025 10.9004 17.457C10.9004 18.2871 10.168 18.9219 9.15479 18.9219C8.30029 18.9219 7.68994 18.4946 7.42139 17.7378C7.2749 17.335 7.05518 17.1641 6.72559 17.1641C6.31055 17.1641 6.01758 17.4814 6.01758 17.9087C6.01758 18.043 6.02979 18.1772 6.06641 18.3115C6.33496 19.459 7.64111 20.3257 9.14258 20.3257ZM17.0161 18.8486C15.9419 18.8486 15.2461 17.5669 15.2461 15.4795C15.2461 13.3555 15.9297 12.0615 17.0161 12.0615C18.1025 12.0615 18.7739 13.3433 18.7739 15.4795C18.7739 17.5669 18.0903 18.8486 17.0161 18.8486Z" fill="#59616A"/>
</svg>
