<svg width="22" height="21" viewBox="0 0 22 21" fill="none" xmlns="http://www.w3.org/2000/svg">
<path d="M3.29785 9.42773H7.82031C9.38867 9.42773 10.1621 8.66504 10.1621 7.05371V2.5957C10.1621 0.984375 9.38867 0.22168 7.82031 0.22168H3.29785C1.71875 0.22168 0.956055 0.984375 0.956055 2.5957V7.05371C0.956055 8.66504 1.71875 9.42773 3.29785 9.42773ZM14.1689 9.42773H18.7021C20.2705 9.42773 21.0332 8.66504 21.0332 7.05371V2.5957C21.0332 0.984375 20.2705 0.22168 18.7021 0.22168H14.1689C12.6006 0.22168 11.8271 0.984375 11.8271 2.5957V7.05371C11.8271 8.66504 12.6006 9.42773 14.1689 9.42773ZM3.29785 7.63379C2.92188 7.63379 2.75 7.44043 2.75 7.05371V2.58496C2.75 2.19824 2.92188 2.00488 3.29785 2.00488H7.80957C8.18555 2.00488 8.36816 2.19824 8.36816 2.58496V7.05371C8.36816 7.44043 8.18555 7.63379 7.80957 7.63379H3.29785ZM14.1797 7.63379C13.8037 7.63379 13.6211 7.44043 13.6211 7.05371V2.58496C13.6211 2.19824 13.8037 2.00488 14.1797 2.00488H18.6914C19.0674 2.00488 19.25 2.19824 19.25 2.58496V7.05371C19.25 7.44043 19.0674 7.63379 18.6914 7.63379H14.1797ZM3.29785 20.2988H7.82031C9.38867 20.2988 10.1621 19.5361 10.1621 17.9248V13.4668C10.1621 11.8555 9.38867 11.0928 7.82031 11.0928H3.29785C1.71875 11.0928 0.956055 11.8555 0.956055 13.4668V17.9248C0.956055 19.5361 1.71875 20.2988 3.29785 20.2988ZM14.1689 20.2988H18.7021C20.2705 20.2988 21.0332 19.5361 21.0332 17.9248V13.4668C21.0332 11.8555 20.2705 11.0928 18.7021 11.0928H14.1689C12.6006 11.0928 11.8271 11.8555 11.8271 13.4668V17.9248C11.8271 19.5361 12.6006 20.2988 14.1689 20.2988ZM3.29785 18.5049C2.92188 18.5049 2.75 18.3223 2.75 17.9355V13.4668C2.75 13.0693 2.92188 12.8867 3.29785 12.8867H7.80957C8.18555 12.8867 8.36816 13.0693 8.36816 13.4668V17.9355C8.36816 18.3223 8.18555 18.5049 7.80957 18.5049H3.29785ZM14.1797 18.5049C13.8037 18.5049 13.6211 18.3223 13.6211 17.9355V13.4668C13.6211 13.0693 13.8037 12.8867 14.1797 12.8867H18.6914C19.0674 12.8867 19.25 13.0693 19.25 13.4668V17.9355C19.25 18.3223 19.0674 18.5049 18.6914 18.5049H14.1797Z" fill="#9E9E9E"/>
</svg>
