<svg width="22" height="21" viewBox="0 0 22 21" fill="none" xmlns="http://www.w3.org/2000/svg">
<path d="M14.1689 9.42773H18.7021C20.2705 9.42773 21.0332 8.66504 21.0332 7.05371V2.5957C21.0332 0.984375 20.2705 0.22168 18.7021 0.22168H14.1689C12.6006 0.22168 11.8271 0.984375 11.8271 2.5957V7.05371C11.8271 8.66504 12.6006 9.42773 14.1689 9.42773ZM3.29785 9.42773H7.82031C9.38867 9.42773 10.1621 8.66504 10.1621 7.05371V2.5957C10.1621 0.984375 9.38867 0.22168 7.82031 0.22168H3.29785C1.71875 0.22168 0.956055 0.984375 0.956055 2.5957V7.05371C0.956055 8.66504 1.71875 9.42773 3.29785 9.42773ZM3.29785 20.2988H7.82031C9.38867 20.2988 10.1621 19.5361 10.1621 17.9248V13.4668C10.1621 11.8555 9.38867 11.0928 7.82031 11.0928H3.29785C1.71875 11.0928 0.956055 11.8555 0.956055 13.4668V17.9248C0.956055 19.5361 1.71875 20.2988 3.29785 20.2988ZM14.1689 20.2988H18.7021C20.2705 20.2988 21.0332 19.5361 21.0332 17.9248V13.4668C21.0332 11.8555 20.2705 11.0928 18.7021 11.0928H14.1689C12.6006 11.0928 11.8271 11.8555 11.8271 13.4668V17.9248C11.8271 19.5361 12.6006 20.2988 14.1689 20.2988Z" fill="#FC5A1F"/>
</svg>
