<svg width="21" height="22" viewBox="0 0 21 22" fill="none" xmlns="http://www.w3.org/2000/svg">
<path d="M10.8457 21.0469C16.3828 21.0469 20.9531 16.4766 20.9531 10.9492C20.9531 5.42188 16.373 0.851562 10.8359 0.851562C5.30859 0.851562 0.748047 5.42188 0.748047 10.9492C0.748047 16.4766 5.31836 21.0469 10.8457 21.0469ZM10.8457 19.0352C6.36328 19.0352 2.7793 15.4316 2.7793 10.9492C2.7793 6.4668 6.36328 2.87305 10.8359 2.87305C15.3184 2.87305 18.9219 6.4668 18.9316 10.9492C18.9414 15.4316 15.3281 19.0352 10.8457 19.0352ZM10.8359 6.42773C11.3828 6.42773 11.8418 5.96875 11.8418 5.42188C11.8418 4.86523 11.3828 4.41602 10.8359 4.41602C10.2793 4.41602 9.83984 4.86523 9.83984 5.42188C9.83984 5.96875 10.2891 6.42773 10.8359 6.42773ZM6.97852 8.12695C7.53516 8.12695 7.98438 7.66797 7.98438 7.12109C7.98438 6.57422 7.53516 6.11523 6.97852 6.11523C6.43164 6.11523 5.97266 6.57422 5.97266 7.12109C5.97266 7.66797 6.43164 8.12695 6.97852 8.12695ZM9.30273 12.4824C10.1328 13.293 11.2754 13.1074 11.9395 12.1504L15.5234 7.0625C15.9238 6.47656 15.3379 5.90039 14.7617 6.29102L9.625 9.83594C8.66797 10.4902 8.49219 11.6426 9.30273 12.4824ZM5.35742 11.9551C5.91406 11.9551 6.36328 11.4961 6.36328 10.9492C6.36328 10.3926 5.91406 9.94336 5.35742 9.94336C4.81055 9.94336 4.35156 10.3926 4.35156 10.9492C4.35156 11.4961 4.81055 11.9551 5.35742 11.9551ZM16.3242 11.9551C16.8711 11.9551 17.3301 11.4961 17.3301 10.9492C17.3301 10.3926 16.8711 9.94336 16.3242 9.94336C15.7676 9.94336 15.3184 10.3926 15.3184 10.9492C15.3184 11.4961 15.7676 11.9551 16.3242 11.9551ZM6.99805 15.7832C7.55469 15.7832 8.00391 15.3242 8.00391 14.7773C8.00391 14.2207 7.55469 13.7715 6.99805 13.7715C6.45117 13.7715 5.99219 14.2207 5.99219 14.7773C5.99219 15.3242 6.45117 15.7832 6.99805 15.7832ZM14.6836 15.7832C15.2305 15.7832 15.6895 15.3242 15.6895 14.7773C15.6895 14.2207 15.2305 13.7715 14.6836 13.7715C14.127 13.7715 13.6777 14.2207 13.6777 14.7773C13.6777 15.3242 14.127 15.7832 14.6836 15.7832Z" fill="#59616A"/>
</svg>
