<svg width="19" height="18" viewBox="0 0 19 18" fill="none" xmlns="http://www.w3.org/2000/svg">
<path d="M1.26074 16.1406C0.895508 16.5059 0.884766 17.1289 1.26074 17.4941C1.63672 17.8594 2.25977 17.8594 2.625 17.4941L9.5 10.6191L16.375 17.4941C16.7402 17.8594 17.374 17.8701 17.7393 17.4941C18.1045 17.1182 18.1045 16.5059 17.7393 16.1406L10.8643 9.25488L17.7393 2.37988C18.1045 2.01465 18.1152 1.3916 17.7393 1.02637C17.3633 0.650391 16.7402 0.650391 16.375 1.02637L9.5 7.90137L2.625 1.02637C2.25977 0.650391 1.62598 0.639648 1.26074 1.02637C0.895508 1.40234 0.895508 2.01465 1.26074 2.37988L8.13574 9.25488L1.26074 16.1406Z" fill="#9E9E9E"/>
</svg>
