<svg width="17" height="27" viewBox="0 0 17 27" fill="none" xmlns="http://www.w3.org/2000/svg">
<path d="M1.84375 26.0898C2.41797 26.0898 2.75781 25.7617 3.8125 24.7422L8.39453 20.2305C8.45312 20.1719 8.55859 20.1719 8.60547 20.2305L13.1875 24.7422C14.2422 25.7617 14.582 26.0898 15.1562 26.0898C15.9414 26.0898 16.3984 25.5742 16.3984 24.6602V4.31641C16.3984 2.08984 15.2852 0.953125 13.082 0.953125H3.91797C1.71484 0.953125 0.601562 2.08984 0.601562 4.31641V24.6602C0.601562 25.5742 1.05859 26.0898 1.84375 26.0898ZM2.80469 22.9258C2.64062 23.0898 2.45312 23.043 2.45312 22.8086V4.33984C2.45312 3.33203 2.98047 2.80469 4.01172 2.80469H13C14.0195 2.80469 14.5469 3.33203 14.5469 4.33984V22.8086C14.5469 23.043 14.3711 23.0898 14.1953 22.9258L9.12109 18.0039C8.74609 17.6406 8.25391 17.6406 7.87891 18.0039L2.80469 22.9258Z" fill="#59616A"/>
</svg>
