<svg width="21" height="16" viewBox="0 0 21 16" fill="none" xmlns="http://www.w3.org/2000/svg">
<path d="M1.87695 3.33984C2.64844 3.33984 3.26367 2.72461 3.26367 1.95312C3.26367 1.19141 2.64844 0.566406 1.87695 0.566406C1.11523 0.566406 0.490234 1.19141 0.490234 1.95312C0.490234 2.72461 1.11523 3.33984 1.87695 3.33984ZM6.4668 2.89062H19.7285C20.2559 2.89062 20.6758 2.48047 20.6758 1.95312C20.6758 1.42578 20.2656 1.01562 19.7285 1.01562H6.4668C5.94922 1.01562 5.5293 1.42578 5.5293 1.95312C5.5293 2.48047 5.93945 2.89062 6.4668 2.89062ZM1.87695 9.3457C2.64844 9.3457 3.26367 8.73047 3.26367 7.95898C3.26367 7.19727 2.64844 6.57227 1.87695 6.57227C1.11523 6.57227 0.490234 7.19727 0.490234 7.95898C0.490234 8.73047 1.11523 9.3457 1.87695 9.3457ZM6.4668 8.89648H19.7285C20.2559 8.89648 20.6758 8.48633 20.6758 7.95898C20.6758 7.43164 20.2656 7.02148 19.7285 7.02148H6.4668C5.94922 7.02148 5.5293 7.43164 5.5293 7.95898C5.5293 8.48633 5.93945 8.89648 6.4668 8.89648ZM1.87695 15.3516C2.64844 15.3516 3.26367 14.7363 3.26367 13.9648C3.26367 13.2031 2.64844 12.5781 1.87695 12.5781C1.11523 12.5781 0.490234 13.2031 0.490234 13.9648C0.490234 14.7363 1.11523 15.3516 1.87695 15.3516ZM6.4668 14.9023H19.7285C20.2559 14.9023 20.6758 14.4922 20.6758 13.9648C20.6758 13.4375 20.2656 13.0273 19.7285 13.0273H6.4668C5.94922 13.0273 5.5293 13.4375 5.5293 13.9648C5.5293 14.4922 5.93945 14.9023 6.4668 14.9023Z" fill="#59616A"/>
</svg>
