<svg width="17" height="25" viewBox="0 0 17 25" fill="none" xmlns="http://www.w3.org/2000/svg">
<path d="M2.3877 24.0605C2.96777 24.0605 3.34375 23.7598 4.25684 22.8682L8.40332 18.7646C8.44629 18.7109 8.54297 18.7109 8.58594 18.7646L12.7432 22.8682C13.6562 23.7598 14.0215 24.0605 14.6123 24.0605C15.4717 24.0605 16.0088 23.4697 16.0088 22.5029V3.74707C16.0088 1.60938 14.8916 0.481445 12.7754 0.481445H4.21387C2.09766 0.481445 0.980469 1.60938 0.980469 3.74707V22.5029C0.980469 23.4697 1.51758 24.0605 2.3877 24.0605ZM3.4082 20.5264C3.26855 20.666 3.09668 20.623 3.09668 20.4189V3.88672C3.09668 3.02734 3.52637 2.6084 4.38574 2.6084H12.6035C13.4629 2.6084 13.8926 3.02734 13.8926 3.88672V20.4189C13.8926 20.623 13.7314 20.666 13.5811 20.5264L9.20898 16.2939C8.75781 15.8428 8.24219 15.8428 7.78027 16.2939L3.4082 20.5264Z" fill="#9E9E9E"/>
</svg>
