<svg width="23" height="23" viewBox="0 0 23 23" fill="none" xmlns="http://www.w3.org/2000/svg">
<path d="M11.4893 22.3516C17.5801 22.3516 22.6074 17.3242 22.6074 11.2441C22.6074 5.16406 17.5693 0.136719 11.4785 0.136719C5.39844 0.136719 0.381836 5.16406 0.381836 11.2441C0.381836 17.3242 5.40918 22.3516 11.4893 22.3516ZM11.4893 20.1387C6.55859 20.1387 2.61621 16.1748 2.61621 11.2441C2.61621 6.31348 6.55859 2.36035 11.4785 2.36035C16.4092 2.36035 20.373 6.31348 20.3838 11.2441C20.3945 16.1748 16.4199 20.1387 11.4893 20.1387ZM15.6572 11.8457C16.1084 11.5879 16.0977 10.9326 15.6572 10.6748L9.46973 7.02246C8.99707 6.75391 8.37402 6.97949 8.37402 7.50586V15.0039C8.37402 15.5303 8.96484 15.7881 9.46973 15.4873L15.6572 11.8457Z" fill="#9E9E9E"/>
</svg>
