<svg width="16" height="16" viewBox="0 0 16 16" fill="none" xmlns="http://www.w3.org/2000/svg">
<path d="M6.80469 12.9531C8.10938 12.9531 9.3125 12.5312 10.2969 11.8281L14 15.5312C14.1719 15.7031 14.3984 15.7891 14.6406 15.7891C15.1484 15.7891 15.5078 15.3984 15.5078 14.8984C15.5078 14.6641 15.4297 14.4375 15.2578 14.2734L11.5781 10.5859C12.3516 9.57031 12.8125 8.3125 12.8125 6.94531C12.8125 3.64062 10.1094 0.9375 6.80469 0.9375C3.50781 0.9375 0.796875 3.63281 0.796875 6.94531C0.796875 10.25 3.5 12.9531 6.80469 12.9531ZM6.80469 11.6562C4.22656 11.6562 2.09375 9.52344 2.09375 6.94531C2.09375 4.36719 4.22656 2.23438 6.80469 2.23438C9.38281 2.23438 11.5156 4.36719 11.5156 6.94531C11.5156 9.52344 9.38281 11.6562 6.80469 11.6562Z" fill="#9E9E9E"/>
</svg>
